<svg class="photo-map__svg" viewBox="{{ include.view_box | default: '0 0 1000 520' }}" role="img" aria-labelledby="{{ include.title_id | default: 'photo-map-title' }}" preserveAspectRatio="xMidYMid meet">
  <title id="{{ include.title_id | default: 'photo-map-title' }}">{{ include.title | default: 'Abstracted land map' }}</title>
  <path class="photo-map__land" fill-rule="evenodd" d="M355.5,463.9 L362,467.5 L350.2,467.1 L339.2,461.1 L348.6,464.5 L350.3,460.3 Z M372.3,456.4 L374.5,457.6 L367.3,458.4 Z M657.2,452.5 L653.7,452.6 L655.1,450 L658.6,450.6 Z M845.7,425.9 L852.4,426.2 L846.1,433.4 L841,434.4 Z M910.9,426.3 L912.7,427.6 L903.1,435.3 L886.5,443.6 L881.7,442.4 Z M926.7,411.2 L926.5,415.7 L931.4,415.8 L929.5,419 L914.1,428.7 L918,423.1 L916.5,421.9 L923.9,415.1 L925.6,405.9 L928.1,408.3 Z M934.4,364.1 L930.8,362.5 L929.1,357 Z M970.1,347.2 L969.6,350.1 L966.5,350.1 Z M26.6,344.5 L973.4,345.3 L26,342.7 Z M633.8,333.8 L634,341.4 L632.1,341.4 L623.6,369.8 L621.9,373.8 L617.3,376 L614,373.9 L613.2,363.8 L616.8,356.8 L618.2,343.2 L627.2,337.5 L631.8,328.4 Z M881.7,334.5 L885.5,338.9 L884.3,352.9 L889.2,358 L892.6,377.6 L882.6,396.4 L861.9,416.4 L851.7,420.4 L849.6,418.4 L851,416.8 L845.7,419.7 L840.2,417.2 L841.3,411.2 L838.7,409.5 L841.2,405.5 L836.2,408.3 L842.8,400.6 L834.8,407.1 L832.3,397.6 L829,395.9 L814.9,398.3 L806.1,403.8 L796.7,404.1 L790.4,407.7 L784.4,404.8 L789.2,398.3 L790.7,377.8 L791.6,376.1 L792.8,378.4 L792.8,371.8 L797.4,362.7 L796.8,365.4 L805.1,359 L816.8,355.5 L825.3,343.9 L825.7,347 L836.5,335.2 L843.8,338.8 L848.2,330.1 L853.6,328.6 L853.6,325.1 L860.8,329.1 L864.2,327.7 L859.4,337.9 L869.4,348.5 L875.7,339.1 L881,323.4 Z M823.1,321.9 L818.7,319.5 L821.3,318.7 Z M833.1,321.5 L830.7,322.3 L832.2,318.5 L841.6,315.3 Z M816.5,314.2 L819.5,316.4 L813,317.6 Z M829.9,314.2 L829.2,316.2 L821.6,316.8 Z M792.1,309.4 L797.9,308.3 L810.5,315.2 L807.3,316.6 L783.3,309.7 L785.4,306.3 Z M862.2,307.4 L860.6,309.9 L861.8,304.6 Z M908.7,304.7 L903.8,307.8 L898.8,305.7 L903.5,303.1 L905.6,304.7 L909.5,299.9 Z M851.5,296.1 L852.4,298.9 L844.6,297.2 L845.3,295.2 Z M861.6,289.1 L862.2,294.9 L864.9,297.1 L872.8,291.1 L889.3,298.9 L896.9,306.9 L895.2,311.6 L903.3,322.1 L895.7,321.5 L888.5,312.5 L882,318.6 L873.3,314.2 L869.1,315.3 L872.4,311.4 L871,304.4 L860,297.7 L857.6,298.5 L855.7,295.1 L860.5,293.9 L851.9,288.3 L856.9,286.3 Z M837.7,279.8 L833.5,284.1 L824.1,284.1 L826.1,290 L832.6,287.1 L827.6,291.8 L831.4,304.2 L829,304 L830.5,301.1 L827.1,301.5 L826.1,294.4 L822.3,305.4 L820.1,295.1 L823.7,282.9 L826,280.2 L831.5,281.7 Z M847,280.8 L846.1,287.7 L843.5,281.3 L844.8,277 Z M784.8,306.1 L781.8,306.2 L776.4,300.2 L766,278.3 L756.6,265.1 L762.6,265.9 L780.2,284.5 L779.1,287.5 L786.1,296 Z M817.8,278.3 L820.9,281.6 L817.7,282.1 L812.9,299.4 L797.1,295.5 L794.2,280 L804.6,273.7 L813.7,259.9 L820.7,265.3 L816.2,273.2 Z M839,254.5 L837.4,264.7 L831.8,256.6 L827.6,258.9 L831.2,253.5 L832.3,255.1 L836.4,252.4 L835.8,249.6 Z M718.7,262.5 L716.4,263.3 L715,260.4 L715,249.4 L720,257.7 Z M338.3,248.4 L336.1,248.8 L336.5,246.1 L338.6,245.7 Z M831.8,247.8 L829.7,252.3 L828.7,245.6 L830.1,247.8 L831.5,244.4 Z M817.6,251.2 L814.4,254.7 L819.3,243.9 Z M825.3,242 L828.8,243.1 L826.4,247.2 Z M834.8,241 L836.2,245 L834,244.1 L834,248.3 L831.3,239.6 Z M823.7,237.8 L823.5,240.9 L820.2,236.4 Z M819.1,218.5 L823.4,223.5 L823.4,233.3 L829.7,235.2 L830.8,239.7 L827.1,236.1 L820.8,235 L818.6,231 L817.1,226.1 L818.4,227.2 Z M298.9,220.7 L295.4,219.5 L300.5,219.7 Z M311.4,213.7 L316,213.7 L321.9,218.1 L315.6,218.8 L313.3,221.7 L306.9,220.2 L306,217.9 L311.4,217.9 L309.1,214.5 Z M790.2,217.9 L785.9,218.5 L786,213.9 L790.2,213 Z M294.7,203.6 L307.4,212.2 L297.8,213.7 L299.9,211.8 L296.4,207.7 L289.2,204 L281.4,206.9 L285.6,202.8 Z M814.6,203.5 L814.3,206.4 L811,200.9 L812.6,194.9 Z M832.8,165.1 L833.3,168.2 L829.1,168.9 L828.7,165.4 Z M585.5,160.2 L582,163.8 L580.1,162 Z M558.9,160.1 L565.3,161.4 L561.6,162.6 Z M538.3,152 L537.7,157.1 L531,153.9 Z M522.7,142.6 L524.1,149 L522.1,149.8 L520.3,143.4 Z M842.7,155.4 L844.8,161.9 L838.3,163.6 L836.8,167.4 L833.1,163.7 L824.2,166 L828,168.4 L829,174 L826.3,174.1 L821.3,167.9 L825.6,161 L832.9,160.6 L832.1,154.9 L834.6,156.5 L836.9,152 L832.8,142.7 L839.2,146.4 Z M523.4,139.7 L521.7,141.5 L522.9,137.1 Z M834.5,133.6 L837.3,132.9 L840.5,136.3 L837.6,137.2 L837.8,140.2 L832.6,138.1 L833.7,141.5 L831.2,141.5 L826.8,129.4 Z M223.7,120.8 L219.6,119.9 L217.3,115 L222.7,115.7 Z M377.1,114.6 L374.8,117.1 L381.6,118.7 L380.1,126.2 L377.7,125.7 L379,123.3 L375,125.5 L373.8,123.3 L367,123.4 L378.7,112 Z M216.6,105.4 L218.8,105.2 L215.2,110.5 Z M817.6,114.4 L824.4,119.5 L820.3,118.5 L828.9,127.7 L825.7,125.9 L826.1,128.2 L805.2,105 Z M486.2,110.3 L479.2,111.5 L480.2,105.9 L486.7,102.4 L488.9,104.1 Z M527.8,101.3 L526.7,103.4 L523.9,100.9 Z M182.2,97.4 L179,98.4 L185.5,95.5 Z M494.8,93.6 L492.5,96.3 L496.9,96 L494.4,100.4 L504.6,109 L504.1,112.9 L489.3,116.7 L493.5,112.6 L489.5,111 L491.8,110.1 L491.1,106.9 L494.6,105.6 L489.1,102.1 L488.1,98.3 L490.7,93.6 Z M166.2,81.6 L170.5,82.6 L164.8,82.4 Z M338.2,77.5 L343.9,81 L330.5,82.1 Z M473.5,75.9 L474.8,78.7 L464.5,82.2 L456.7,81.2 L458.8,80.2 L454.8,79.2 L458.3,78.7 L454.4,77.6 Z M358.3,74.5 L356.1,74.6 L361,72.8 Z M168.9,70.9 L172.1,74.3 L169.8,75.6 L176.9,74.9 L177.4,76.9 L165.5,80.5 L159.2,78.1 L161.1,76.6 L154.5,79 L847.4,79 L843.7,79.8 L855.2,84.3 L847,86.4 L846.4,90.6 L841.1,88.9 L832.7,90.6 L845.8,103.3 L843.7,104.6 L846.4,107.7 L843.9,108.4 L845.8,113.7 L826.8,98.3 L825.4,95.6 L827.9,95.1 L828.7,87.6 L825.6,84.3 L823.5,84.5 L823.5,89 L813.9,86.9 L814.1,90.9 L817.7,92.4 L791.7,92.6 L788.7,103.6 L806.4,108 L815.5,121 L815.3,135.9 L813.4,137.7 L809.5,136.3 L805.9,146.3 L817.5,162.1 L812.3,164.3 L809,156.2 L802.5,152.9 L800.9,148.3 L797.2,146.6 L791.4,149.9 L789.1,143.4 L783.7,148.9 L788.7,154.5 L791.1,155.4 L792.6,153.1 L798.4,156.1 L795.4,157 L793.4,162.7 L805.2,173.2 L809.4,184.9 L806.1,197.4 L800.9,203.5 L789,208.3 L789,212 L782.8,207.2 L777.6,214.1 L788.8,229.9 L791.7,242.8 L789.8,245.2 L782.2,253.8 L781.5,249.1 L766.6,236.6 L766.1,251.5 L777.2,264.9 L781.2,280.2 L773.4,274.9 L769.3,261.5 L764.5,254.6 L764.2,256.7 L764,243.6 L756.8,224.1 L752.8,228.4 L749.5,227.2 L748.5,219.5 L737.6,203.6 L735.1,203.5 L735.3,206.8 L727,208 L726.7,212.7 L717.6,225.4 L713,227.7 L714,247.5 L708.5,256.1 L695,227.4 L689.8,208.5 L684.5,210.2 L671.1,194.4 L658.8,195.6 L647.9,193.3 L644.8,188.5 L637.3,189.7 L623.9,177.8 L621.6,179 L623.5,183.8 L631,195.9 L631.4,192.4 L633,193.1 L633.8,198.5 L640.1,198.9 L644.9,191.1 L647.3,198.5 L656,205.2 L652.3,216.5 L646.4,223 L639.1,226 L638.8,228.8 L630,234.5 L616.5,239.3 L613.3,224.6 L602.7,208.7 L600.3,200.4 L588.8,185.4 L589.1,181 L587.7,186.2 L582.6,179.4 L596.1,205.5 L599.2,218.1 L615.4,239.1 L614.7,242.6 L620,247.2 L635.9,241.5 L637.1,246.5 L629.2,269.6 L616.9,283.9 L606.2,301.8 L605,308.3 L608.9,323.8 L608.9,337.8 L604.9,345 L591.8,355.8 L592.3,370.9 L584.4,376.5 L582.4,386.7 L571,400.2 L550.3,406.8 L546.4,404.2 L546.4,396.5 L539.7,381.1 L537.9,364 L531.9,349.8 L537.4,323.7 L532.9,303.2 L524.6,288.9 L526.2,271.4 L523.8,267.6 L516.8,269.5 L512.5,262.2 L495.7,267.9 L488.5,266.2 L480.8,269.2 L476.8,267.4 L467.7,258.6 L456.8,241 L454.3,231.9 L458.6,219.9 L456.9,206.6 L464,191.6 L476.9,179.1 L477.8,170.3 L486.5,159.9 L494.6,161.8 L504.5,157.2 L524,154.8 L527.7,155.6 L526.5,166.3 L548.9,178 L551.1,171.4 L554.4,169.4 L573.4,176 L578.3,173.7 L585.5,175.6 L589.4,163.6 L588.9,157 L580.2,158.8 L568.2,157 L563.5,148.1 L570.1,142.6 L579.8,140.1 L591.8,143.4 L596.6,143.2 L599.1,140.3 L585.3,130.4 L589.8,125 L580.8,127.3 L584.9,129.7 L579.4,133 L575.6,130.1 L577.9,128.5 L571,126.4 L565.8,138.4 L569.5,142.3 L563.7,145.9 L560,143.4 L557.2,144.3 L557.9,146.5 L555.2,144.9 L559.1,153.8 L556.7,153 L555.7,157.8 L547.1,145.6 L546.6,140.6 L531.1,128.9 L530.1,133.8 L544.6,145.3 L544.6,147 L541,145 L539.8,152.7 L537.7,146.2 L521.5,133 L516.2,136.7 L508.2,136.9 L508.1,140.5 L502.9,143.2 L501.2,150.4 L495.7,156.9 L487.8,159.3 L485.1,156.1 L479.3,156.3 L479,137 L497.7,134 L498.2,128.1 L490.7,120.3 L497.3,120.4 L496.7,117.2 L503.9,116.2 L511.1,108 L519.8,105.5 L518.8,97.4 L522.9,95.9 L523.8,99.1 L521.4,101.7 L524.3,104.6 L531.3,106.2 L538.4,103.3 L542.9,104.4 L546.1,102.4 L545.8,96.7 L551.2,97.7 L548.6,92.3 L559.9,90.2 L547.3,90.7 L543.8,88.6 L543.2,82.9 L549.8,78.7 L543.3,77.4 L536.1,83.9 L535.2,87.1 L539,90.1 L535.5,93.4 L534.4,100 L528.4,101.9 L522,91.6 L518.2,94.4 L512.6,93.7 L510.9,85.7 L528.5,73.1 L545.3,67.1 L577.9,73.8 L574,76.8 L563.7,75.5 L573,81.4 L572.4,78.6 L577.5,80 L580.7,75.8 L584.6,76.7 L581.5,71.7 L586.9,72.3 L588.6,75.4 L600.2,71.1 L613.7,71 L611,69.9 L628.5,72.6 L621.8,67.7 L623.5,64.1 L629.6,64.2 L637.7,72 L636.2,76.1 L638.6,76.5 L641.2,73.2 L632.3,66.4 L634.6,65.3 L633.2,64.1 L638.6,66.9 L636.8,65.7 L647,65.9 L642.4,62.8 L677.4,57.1 L697.2,59.6 L692.9,61.5 L701.1,63.3 L724.2,62.9 L738.5,67.6 L737.7,65.8 L752.2,66.3 L749.8,64.1 L814.7,71.4 L812.3,69.6 L828.9,70.1 Z M617,142.4 L620.9,145.6 L618.2,150.1 L619.9,154 L631.6,156 L630.2,149.7 L626.5,146.3 L626.4,143.7 L630.6,143.4 L627.2,139.8 L625.9,142.9 L623.8,137.8 L617.5,133.2 L619,130.3 L623,130.3 L621.5,125.6 L613,126.9 L608.8,132.3 Z M324.8,70.6 L317.7,70.1 L322,68.7 Z M177.7,66.3 L181.2,66.7 L175.4,67.5 Z M334.8,69.9 L333,71.9 L336.9,70.4 L336.7,74.4 L344.7,69.2 L351.3,70.5 L347.8,74.5 L338.6,75.7 L316.1,85.5 L307.2,92.9 L309.8,93.3 L308.6,97.5 L326.4,102.5 L323.8,107.5 L325.5,113.2 L330.3,109.4 L330.8,103.8 L340.6,98.9 L340,93.2 L348.1,84.3 L361.5,87.8 L359.1,92.8 L361.5,94.7 L370.6,89.5 L372.9,97.8 L371.3,99.4 L378.7,103.9 L379.6,110.6 L368.1,115.9 L354,115.9 L339.3,125.7 L355.8,118.7 L357.2,120.1 L354.3,122.1 L353.7,127.4 L360.1,128.5 L363.5,125.1 L364.1,128.3 L348.8,135.5 L347.9,132.7 L352.8,130.2 L337.9,135 L334.7,139.2 L335.9,141.3 L326.3,143.5 L330,142.9 L325.3,144.4 L321.3,149.7 L320.4,148 L316.9,155.2 L318,149.1 L315.5,152 L315.7,160.6 L297.7,174.1 L294.7,195.2 L292.7,195.2 L291.2,189.9 L290.3,179.1 L277,177.8 L273.3,181.8 L264.6,179.8 L253.3,187.7 L247.3,206.6 L249.7,217.4 L253.1,219.8 L263.4,215.7 L265.9,209.7 L274.7,207.8 L266.2,227.7 L276.7,227.4 L280.5,229.9 L277.6,243.9 L282.3,252.6 L288.4,250.2 L295.5,253.7 L301.3,244.9 L310.2,240 L309.3,252.1 L310.6,245.3 L314.9,241 L319.1,246.8 L327.8,248.5 L335.9,246.2 L334.4,249 L347.7,263.3 L356.2,264.1 L361.8,268.4 L366.6,278.6 L364.6,284.1 L370.2,285.8 L370.3,289.4 L372.4,287 L380.2,290.5 L381.1,294.7 L393.5,295.3 L406.4,304.7 L407.1,317.4 L397.7,334.6 L394.7,363.4 L392.3,366.9 L385.6,368.3 L378.5,373.6 L377.3,386.5 L368.5,405.5 L362.9,407 L356.8,403.9 L362.8,412 L361.8,417.7 L351.3,419.7 L353.5,425.5 L347.5,425.9 L348.1,429.8 L352.2,431.4 L349.1,434.2 L349.9,438.9 L346.5,440.4 L352.4,448 L348.5,455.3 L352.7,459.8 L347.6,461.3 L348.5,463.8 L337.8,459.6 L331.5,449.5 L332.5,444.5 L328.7,443.6 L328.5,436 L331.5,437.1 L330.3,430.8 L328.4,430 L329.1,433.8 L327.5,433.4 L322.6,414.4 L323.3,399 L316.3,350.8 L299.7,337.7 L287.3,310.9 L283.1,307.1 L282.4,302.1 L286.6,294.5 L283.3,293.1 L283.3,288.7 L293.8,271 L291.8,254.8 L288.3,252.6 L284.3,258.8 L272.3,249 L268.7,237 L259.1,234.7 L251.2,226.6 L245.9,228.6 L229.4,219.2 L225.5,213.4 L226.9,205.3 L221,193.9 L216.6,173.6 L214.7,172.9 L212.7,178.3 L218.3,201.5 L216.7,203.4 L212.6,196.8 L213.7,192.4 L208.7,186.6 L212,183.7 L209.8,180.4 L210.2,168.8 L204.7,164.2 L204.2,149.7 L220.4,121.7 L223.6,122.1 L222.8,124.9 L226.3,119.4 L220.2,114.2 L222.8,110.1 L221.1,108.9 L224.3,94.9 L205.6,88.2 L191,92.3 L199.5,87.8 L167.4,100.3 L149,104.5 L179.4,92.9 L168.5,93.5 L171.8,91.2 L167.7,89.1 L190.9,79.4 L181.7,80.1 L179.7,77.5 L193.5,76.6 L191.3,72.1 L206.5,68.4 L219.3,66.6 L248.9,71 L268.3,68.1 L296.7,74 L304.8,71.2 L311.1,73.5 L322.2,72.3 L320.4,74.2 L327.3,70.7 L325.1,68.8 L330.7,65.6 L333.8,66.6 L331.8,69.5 Z M299.3,63.6 L297.4,64.4 L306.5,63.9 L306.9,66.1 L312.7,63.7 L312.3,67.2 L316.7,68.9 L311.5,71.3 L287.2,70.5 L296.6,68.3 L287,68 L292,66.7 L286.6,66.2 Z M348.1,63.6 L356.5,62.6 L356.8,65.4 L371.3,66.2 L377.2,68.8 L377.7,70.5 L373.7,71.4 L384.3,75 L378,78.9 L371.8,76.3 L374.4,82.4 L372.8,84 L366.8,81.7 L369.6,84.9 L361.3,83.5 L356.5,79.6 L350.2,80.6 L351.5,78.3 L359.3,78 L364.4,72.6 L359,71 L359.6,69.4 L339,66.8 L350.4,62.6 Z M325,62.5 L330,62.6 L323.9,66.7 L318.8,64.6 Z M335.7,64.2 L330.6,65.4 L333.5,62.5 L342.3,62.5 Z M284.4,66.5 L275.6,65.7 L289.1,61.6 L297.6,63.1 Z M332.9,58.4 L330.8,60.8 L324.2,60 Z M315.5,59.1 L319.1,59.4 L297.3,60.4 Z M605.1,67.7 L592.9,65.4 L600.7,59.9 L618.6,58.6 L603,61.8 L599.6,64.9 Z M340,57.9 L362.6,60.3 L344.6,61.5 L335.3,58.3 Z M531.3,54.9 L537,55.7 L528.1,58.3 L518.3,54.9 Z M543,54.1 L546.4,54.5 L529.7,54.2 Z M356.2,54.9 L357.8,55.2 L341.2,54.9 Z M389.6,51.8 L400.1,52.2 L372.7,55.3 L374.8,55.4 L362.8,59.1 L347.9,58.7 L365.6,54.1 L351,53.1 L353.6,52.6 Z M457,51.6 L467,52.1 L448.8,52.5 L480,52.9 L467.7,54.4 L471.6,54.4 L467.9,55.9 L469.5,58 L463.9,58.5 L466.9,59.2 L465.2,60.5 L467.1,61.8 L457.8,64.5 L461.5,67.8 L455,66.4 L453,68.6 L460.2,68.8 L424.7,77.9 L416.5,84 L413.2,90.1 L404,88.3 L400.2,81.9 L398.9,76.6 L408.1,69.1 L400.8,69.7 L402.6,67.5 L407.7,68 L400.8,66.1 L403.8,64.5 L401.3,61.2 L377.4,56.7 L402.3,52.7 Z"/>
  <path class="photo-map__coast" d="M356,463 L363,465 L355,467 L340,460 L349,464 L351,459 L356,463 M373,456 L375,458 L368,458 L373,456 M657,452 L653,452 L655,449 L658,450 L657,452 M844,425 L851,426 L845,433 L840,434 L844,425 M909,426 L911,427 L901,435 L885,443 L880,442 L909,426 M925,411 L926,416 L931,416 L912,428 L916,423 L915,421 L922,415 L924,405 L926,408 L925,411 M933,364 L929,362 L927,357 L933,364 M968,347 L968,350 L965,350 L968,347 M633,334 L623,369 L617,376 L613,363 L618,343 L627,337 L631,328 L633,334 M880,334 L891,377 L881,396 L863,415 L850,420 L850,416 L839,417 L840,405 L835,408 L841,400 L833,407 L828,395 L789,407 L783,404 L796,362 L816,355 L833,336 L842,339 L852,325 L863,327 L858,339 L868,348 L878,325 L880,334 M822,322 L817,319 L820,319 L822,322 M931,319 L929,315 L931,319 M832,321 L829,322 L831,318 L840,315 L832,321 M815,314 L818,316 L812,317 L815,314 M829,314 L820,317 L829,314 M927,315 L923,312 L927,315 M791,309 L797,308 L809,315 L806,316 L782,310 L784,306 L791,309 M861,307 L859,310 L860,304 L861,307 M917,309 L914,303 L917,309 M907,305 L902,308 L897,306 L902,303 L904,305 L906,300 L908,300 L907,305 M850,296 L851,299 L843,297 L850,296 M910,301 L905,294 L910,301 M860,289 L863,297 L871,291 L888,299 L895,307 L894,311 L901,323 L894,321 L887,312 L880,318 L868,315 L870,304 L857,300 L854,295 L859,293 L850,288 L860,289 M836,280 L832,284 L823,284 L825,290 L831,287 L826,292 L830,304 L825,294 L821,305 L819,295 L822,283 L836,280 M846,281 L844,288 L843,278 L846,281 M784,306 L775,300 L756,265 L761,266 L779,284 L785,296 L784,306 M817,278 L820,282 L816,282 L812,299 L796,295 L793,280 L803,274 L812,260 L819,265 L815,273 L817,278 M838,255 L836,265 L830,257 L826,259 L830,254 L835,253 L834,250 L838,255 M718,263 L716,263 L714,260 L714,250 L719,258 L718,263 M339,248 L336,249 L337,246 L339,246 L339,248 M830,248 L828,252 L827,246 L829,248 L830,244 L830,248 M816,251 L813,255 L818,244 L816,251 M824,242 L827,243 L825,247 L824,242 M833,241 L835,245 L833,244 L833,248 L830,240 L833,241 M822,238 L822,241 L819,237 L822,238 M818,219 L820,219 L822,224 L822,233 L828,235 L829,240 L819,235 L816,226 L818,219 M330,220 L325,221 L326,219 L330,220 M300,221 L296,220 L300,219 L300,221 M312,214 L319,215 L323,218 L316,219 L314,222 L308,220 L307,218 L312,218 L310,215 L312,214 M789,218 L785,219 L785,214 L789,213 L789,218 M95,217 L96,213 L98,215 L95,217 M296,204 L308,213 L299,214 L301,212 L297,208 L290,204 L281,207 L289,202 L296,204 M302,200 L301,195 L302,200 M813,204 L813,207 L810,201 L811,195 L813,204 M831,166 L832,169 L828,169 L827,166 L831,166 M585,161 L582,164 L580,162 L585,161 M559,161 L565,163 L559,161 M538,152 L538,158 L531,154 L538,152 M523,143 L524,149 L522,150 L520,144 L523,143 M841,156 L843,162 L835,168 L832,164 L823,166 L827,169 L828,174 L825,175 L820,168 L824,161 L832,161 L831,155 L836,153 L831,143 L838,147 L841,156 M523,140 L523,143 L521,140 L523,138 L523,140 M833,134 L839,137 L836,138 L836,141 L831,139 L832,142 L830,142 L825,130 L833,134 M363,120 L358,118 L363,120 M225,121 L221,121 L219,116 L224,116 L225,121 M378,115 L375,118 L382,119 L381,127 L378,126 L379,124 L376,126 L374,124 L368,124 L379,113 L378,115 M218,106 L220,106 L216,111 L218,106 M816,115 L823,120 L819,119 L828,128 L824,127 L825,129 L805,105 L816,115 M486,111 L479,112 L480,107 L487,103 L489,105 L486,111 M184,98 L180,99 L187,96 L184,98 M495,94 L493,97 L497,97 L494,101 L505,110 L504,114 L489,117 L494,113 L490,112 L492,111 L491,108 L495,106 L488,99 L491,94 L495,94 M339,78 L345,82 L331,83 L339,78 M474,77 L475,79 L465,83 L457,82 L459,81 L455,80 L459,79 L455,78 L474,77 M359,75 L357,75 L362,74 L359,75 M170,72 L174,75 L172,77 L178,76 L179,78 L167,81 L161,79 L163,77 L156,80 M846,80 L842,81 L854,86 L846,87 L845,91 L831,91 L844,104 L844,114 L826,99 L824,85 L822,90 L813,88 L816,93 L791,93 L788,104 L805,109 L814,122 L814,136 L808,137 L804,148 L816,163 L811,165 L799,148 L790,150 L788,144 L783,149 L797,157 L792,163 L804,174 L808,185 L800,204 L788,212 L782,208 L777,214 L788,230 L789,245 L781,254 L766,237 L765,252 L776,265 L780,280 L772,275 L763,255 L756,224 L748,227 L737,204 L726,208 L712,228 L713,248 L708,256 L689,209 L684,210 L670,195 L637,190 L623,178 L634,200 L640,199 L644,191 L655,205 L646,223 L616,239 L600,201 L589,181 L587,187 L582,180 L614,243 L620,247 L636,242 L637,247 L629,270 L606,302 L608,338 L591,355 L592,371 L571,400 L546,404 L532,349 L537,323 L525,289 L526,271 L517,269 L513,262 L477,267 L457,241 L457,207 L487,160 L524,155 L528,157 L526,167 L549,178 L554,170 L585,176 L589,158 L568,157 L563,149 L580,141 L599,141 L585,131 L589,125 L580,128 L584,131 L579,134 L571,127 L566,139 L569,144 L555,146 L559,154 L556,158 L547,142 L531,129 L530,134 L545,146 L541,146 L540,153 L521,134 L508,137 L496,157 L479,157 L479,138 L498,135 L491,121 L518,108 L519,98 L523,97 L524,106 L543,105 L546,97 L551,98 L548,93 L560,91 L544,89 L543,84 L550,79 L543,78 L536,85 L539,91 L534,101 L528,103 L522,92 L513,94 L511,86 L545,68 L576,74 L578,76 L563,76 L573,82 L584,77 L581,73 L588,76 L611,70 L628,73 L621,68 L624,65 L638,77 L641,74 L632,67 L677,58 L738,68 L751,67 L749,65 L828,71 M617,143 L620,146 L619,155 L631,157 L626,144 L630,144 L627,140 L625,143 L617,133 L622,131 L621,126 L613,128 L608,133 L617,143 M326,71 L319,71 L326,71 M336,71 L337,75 L350,70 L348,75 L308,94 L309,98 L327,103 L326,114 L349,85 L362,89 L362,95 L371,90 L372,100 L379,105 L380,111 L355,117 L340,126 L356,119 L354,128 L365,129 L339,136 L318,156 L319,150 L317,161 L299,174 L296,195 L290,179 L266,180 L254,188 L248,207 L254,220 L276,208 L267,228 L281,230 L279,245 L282,252 L296,254 L311,240 L310,252 L316,241 L320,247 L337,246 L348,263 L364,270 L365,284 L371,289 L394,295 L407,305 L395,363 L379,373 L369,405 L357,403 L362,417 L352,419 L354,425 L347,426 L353,431 L347,440 L353,445 L349,455 L353,459 L348,463 L339,459 L329,443 L332,436 L323,414 L317,350 L301,337 L284,307 L288,294 L284,289 L295,271 L293,255 L289,253 L285,259 L273,249 L270,237 L231,219 L218,174 L214,179 L217,204 L210,187 L211,169 L206,164 L205,150 L222,122 L224,126 L227,120 L221,115 L226,96 L207,89 L192,93 L201,88 L150,105 L181,94 L170,94 L173,91 L169,90 L192,80 L181,78 L195,77 L193,73 L208,69 L269,69 L298,75 L321,75 L331,66 L336,71 M300,65 L314,65 L318,70 L292,73 L288,70 L298,69 L288,67 L300,65 M367,65 L359,64 L367,65 M349,64 L372,67 L378,70 L374,72 L385,76 L379,80 L372,77 L375,83 L367,82 L370,87 L351,81 L365,74 L358,70 L341,69 L341,66 L349,64 M326,63 L331,64 L328,67 L320,66 L326,63 M753,64 L746,64 L753,64 M336,65 L331,66 L334,63 L343,63 L336,65 M285,67 L277,67 L284,63 L299,64 L285,67 M761,62 L752,61 L761,62 M339,62 L334,62 L339,62 M750,61 L736,60 L750,61 M334,59 L332,62 L325,61 L334,59 M316,60 L320,60 L298,61 L316,60 M605,69 L593,67 L597,62 L618,60 L603,63 L599,66 L605,69 M341,59 L363,61 L345,62 L336,59 L341,59 M305,58 L291,60 L305,58 M315,58 L310,58 L315,58 M543,58 L536,57 L543,58 M318,57 L313,57 L318,57 M333,57 L325,57 L333,57 M677,57 L668,58 L677,57 M531,56 L537,57 L528,59 L518,56 L531,56 M543,55 L530,55 L543,55 M585,55 L575,55 L585,55 M668,57 L651,55 L668,57 M357,56 L349,57 L341,55 L357,56 M390,53 L400,53 L349,60 L366,55 L352,54 L390,53 M457,52 L467,53 L450,54 L481,54 L468,55 L472,55 L464,59 L467,63 L457,66 L462,69 L453,69 L460,70 L425,79 L414,91 L404,89 L401,83 L400,75 L408,70 L401,71 L408,69 L401,67 L402,62 L378,58 L457,52"/>
</svg>