<svg class="photo-map__svg" viewBox="{{ include.view_box | default: '0 0 100 100' }}" role="img" aria-labelledby="{{ include.title_id | default: 'photo-local-map-title' }}" preserveAspectRatio="xMidYMid meet">
  <title id="{{ include.title_id | default: 'photo-local-map-title' }}">{{ include.title | default: 'Local photo map' }}</title>
  {% case include.shape %}
  {% when 'west-coast' %}
    <path class="photo-map__land" d="M24,0 L100,0 L100,100 L50,100 L46,88 L41,76 L38,65 L32,56 L29,45 L25,34 L27,23 L22,12 Z"/>
    <path class="photo-map__coast" d="M24,0 L22,12 L27,23 L25,34 L29,45 L32,56 L38,65 L41,76 L46,88 L50,100 M39,66 L45,77 L49,88 L53,100"/>
  {% when 'scotland' %}
    <path class="photo-map__land" d="M38,0 L54,5 L68,14 L72,27 L64,39 L80,50 L74,60 L86,70 L79,82 L94,100 L0,100 L31,84 L24,75 L31,62 L22,50 L29,39 L25,29 L32,17 Z"/>
    <path class="photo-map__coast" d="M38,0 L54,5 L68,14 L72,27 L64,39 L80,50 L74,60 L86,70 L79,82 L94,100 M31,84 L24,75 L31,62 L22,50 L29,39 L25,29 L32,17 L38,0 M24,61 L14,70 L16,82 L27,73"/>
  {% when 'northern-china' %}
    <path class="photo-map__land" d="M0,0 L100,0 L100,25 L92,31 L94,39 L88,46 L91,54 L83,62 L77,72 L64,78 L51,74 L38,67 L27,64 L0,76 Z"/>
    <path class="photo-map__coast" d="M100,25 L92,31 L94,39 L88,46 L91,54 L83,62 L77,72 L64,78 L51,74 L38,67 L27,64 L0,76 M78,59 L88,68 L91,82 L87,94 L82,81 L78,68 Z"/>
  {% when 'northeast-us' %}
    <path class="photo-map__land" d="M0,0 L100,0 L100,29 L92,35 L87,42 L82,48 L80,58 L73,66 L67,76 L56,83 L47,88 L35,98 L0,100 Z"/>
    <path class="photo-map__coast" d="M100,29 L92,35 L87,42 L82,48 L80,58 L73,66 L67,76 L56,83 L47,88 L35,98"/>
  {% when 'southern-china' %}
    <path class="photo-map__land" d="M0,0 L100,0 L100,22 L93,24 L88,30 L84,38 L78,45 L72,49 L68,57 L64,64 L61,73 L55,80 L48,83 L39,77 L32,81 L23,78 L14,83 L0,88 Z"/>
    <path class="photo-map__coast" d="M100,22 L93,24 L88,30 L84,38 L78,45 L72,49 L68,57 L64,64 L61,73 L55,80 L48,83 L39,77 L32,81 L23,78 L14,83 L0,88 M80,58 L85,68 L83,81 L78,88 L75,75 L76,65 Z"/>
  {% when 'pearl-river-delta' %}
    <path class="photo-map__land" d="M0,0 L100,0 L100,53 L93,56 L86,60 L80,64 L74,70 L67,75 L60,73 L55,79 L48,76 L41,82 L34,77 L27,80 L19,75 L11,78 L0,73 Z"/>
    <path class="photo-map__coast" d="M100,53 L93,56 L86,60 L80,64 L74,70 L67,75 L60,73 L55,79 L48,76 L41,82 L34,77 L27,80 L19,75 L11,78 L0,73 M51,50 L55,58 L54,67 M62,59 L69,64 L72,72"/>
  {% when 'elsewhere-china' %}
    <path class="photo-map__land" d="M0,0 L100,0 L100,22 L93,24 L88,30 L84,38 L78,45 L72,49 L68,57 L64,64 L61,73 L55,80 L48,83 L39,77 L32,81 L23,78 L14,83 L0,88 Z"/>
    <path class="photo-map__coast" d="M100,22 L93,24 L88,30 L84,38 L78,45 L72,49 L68,57 L64,64 L61,73 L55,80 L48,83 L39,77 L32,81 L23,78 L14,83 L0,88 M80,58 L85,68 L83,81 L78,88 L75,75 L76,65 Z"/>
  {% when 'italy' %}
    <path class="photo-map__land" d="M0,0 L100,0 L100,20 L90,22 L82,18 L72,24 L64,34 L66,47 L74,56 L86,68 L78,80 L65,72 L60,91 L53,100 L47,82 L39,70 L33,56 L21,49 L27,38 L36,39 L43,30 L53,24 L48,18 L36,14 L24,18 L12,13 L0,18 Z"/>
    <path class="photo-map__coast" d="M100,20 L90,22 L82,18 L72,24 L64,34 L66,47 L74,56 L86,68 L78,80 L65,72 L60,91 L53,100 M47,82 L39,70 L33,56 L21,49 L27,38 L36,39 L43,30 L53,24 L48,18 L36,14 L24,18 L12,13 L0,18"/>
  {% when 'georgia' %}
    <path class="photo-map__land" d="M22,0 L100,0 L100,100 L25,100 L20,84 L17,68 L12,54 L17,39 L13,24 Z"/>
    <path class="photo-map__coast" d="M22,0 L13,24 L17,39 L12,54 L17,68 L20,84 L25,100 M28,33 L42,28 L56,31 L71,27 L88,35 M34,63 L49,59 L63,64 L80,58"/>
  {% else %}
    <path class="photo-map__land" d="M0,0 H100 V100 H0 Z"/>
    <path class="photo-map__coast" d="M0,0 H100 V100 H0 Z"/>
  {% endcase %}
</svg>
