<svg class="photo-map__svg" viewBox="{{ include.view_box | default: '0 0 100 100' }}" role="img" aria-labelledby="{{ include.title_id | default: 'photo-local-map-title' }}" preserveAspectRatio="xMidYMid meet">
  <title id="{{ include.title_id | default: 'photo-local-map-title' }}">{{ include.title | default: 'Local photo map' }}</title>
  {% case include.shape %}
  {% when 'west-coast' %}
    <path class="photo-map__land" transform="translate(2 -1.5)" d="M30,0 L100,0 L100,100 L54,100 C50,88 47,78 43,69 C40,61 34,55 32,45 C30,34 25,23 28,12 Z"/>
    <path class="photo-map__coast" d="M29,0 C27,12 26,24 29,36 C31,47 34,56 40,66 C43,74 47,86 53,100 M40,67 C48,78 53,89 57,100"/>
  {% when 'scotland' %}
    <path class="photo-map__land" transform="translate(1.8 -1.2)" d="M44,4 C55,6 65,15 70,28 L64,40 L78,50 L72,61 L84,72 L77,86 L60,96 L47,84 L34,90 L26,76 L31,62 L23,50 L30,39 L28,28 L34,15 Z M22,62 L12,72 L15,84 L26,74 Z"/>
    <path class="photo-map__coast" d="M44,4 C55,6 65,15 70,28 L64,40 L78,50 L72,61 L84,72 L77,86 L60,96 L47,84 L34,90 L26,76 L31,62 L23,50 L30,39 L28,28 L34,15 Z M22,62 L12,72 L15,84 L26,74"/>
  {% when 'northern-china' %}
    <path class="photo-map__land" transform="translate(1.5 -1.8)" d="M0,0 L100,0 L100,42 C92,43 86,48 83,55 C78,66 68,73 55,74 C45,74 38,68 28,67 L0,78 Z M84,54 C92,63 96,78 90,94 C84,82 80,65 84,54 Z"/>
    <path class="photo-map__coast" d="M100,42 C92,43 86,48 83,55 C78,66 68,73 55,74 C45,74 38,68 28,67 L0,78 M84,54 C92,63 96,78 90,94 C84,82 80,65 84,54"/>
  {% when 'northeast-us' %}
    <path class="photo-map__land" transform="translate(1.8 -1.4)" d="M0,0 L100,0 L100,32 C91,36 84,43 81,52 C78,62 70,72 59,80 L45,90 L35,100 L0,100 Z"/>
    <path class="photo-map__coast" d="M100,32 C91,36 84,43 81,52 C78,62 70,72 59,80 L45,90 L35,100 M73,64 L84,67 L94,72 M66,77 L74,84"/>
  {% when 'southern-china' %}
    <path class="photo-map__land" transform="translate(1.6 -1.5)" d="M0,0 L100,0 L100,22 L93,24 L88,30 L84,38 L78,45 L72,49 L68,57 L64,64 L61,73 L55,80 L48,83 L39,77 L32,81 L23,78 L14,83 L0,88 Z"/>
    <path class="photo-map__coast" d="M100,22 L93,24 L88,30 L84,38 L78,45 L72,49 L68,57 L64,64 L61,73 L55,80 L48,83 L39,77 L32,81 L23,78 L14,83 L0,88 M80,58 L85,68 L83,81 L78,88 L75,75 L76,65 Z"/>
  {% when 'pearl-river-delta' %}
    <path class="photo-map__land" transform="translate(1.7 -1.3)" d="M0,0 L100,0 L100,52 C91,56 83,61 77,68 C71,75 62,78 55,75 C50,82 42,82 36,77 C29,82 21,79 14,75 L0,78 Z"/>
    <path class="photo-map__coast" d="M100,52 C91,56 83,61 77,68 C71,75 62,78 55,75 C50,82 42,82 36,77 C29,82 21,79 14,75 L0,78 M46,53 C51,60 52,68 49,76 M60,58 C66,63 70,69 72,76 M69,72 L76,83"/>
  {% when 'elsewhere-china' %}
    <path class="photo-map__land" transform="translate(1.5 -1.6)" d="M0,0 L100,0 L100,22 C92,25 86,31 82,39 C77,48 71,54 68,63 C64,76 53,84 39,84 C27,85 16,82 0,89 Z M82,58 C87,69 85,81 78,90 C75,77 77,66 82,58 Z"/>
    <path class="photo-map__coast" d="M100,22 C92,25 86,31 82,39 C77,48 71,54 68,63 C64,76 53,84 39,84 C27,85 16,82 0,89 M82,58 C87,69 85,81 78,90 C75,77 77,66 82,58"/>
  {% when 'italy' %}
    <path class="photo-map__land" transform="translate(1.7 -1.4)" d="M22,12 C36,6 54,7 68,16 L64,30 L70,43 L76,58 L88,69 L80,80 L66,73 L61,91 L54,100 L48,80 L40,68 L34,54 L23,47 L28,36 L37,37 L43,29 L52,24 L47,18 L35,15 Z"/>
    <path class="photo-map__coast" d="M22,12 C36,6 54,7 68,16 L64,30 L70,43 L76,58 L88,69 L80,80 L66,73 L61,91 L54,100 M48,80 L40,68 L34,54 L23,47 L28,36 L37,37 L43,29 L52,24 L47,18 L35,15 Z M20,72 C25,78 25,87 18,92 M66,88 C72,91 78,94 84,98"/>
  {% when 'georgia' %}
    <path class="photo-map__land" transform="translate(1.6 -1.2)" d="M15,55 C24,44 35,39 47,37 C58,31 71,34 82,42 L91,54 L84,66 L68,70 L55,64 L40,68 L26,62 Z"/>
    <path class="photo-map__coast" d="M15,55 C24,44 35,39 47,37 C58,31 71,34 82,42 L91,54 L84,66 L68,70 L55,64 L40,68 L26,62 Z M47,37 C55,40 65,40 74,39"/>
  {% else %}
    <path class="photo-map__land" d="M0,0 H100 V100 H0 Z"/>
    <path class="photo-map__coast" d="M0,0 H100 V100 H0 Z"/>
  {% endcase %}
</svg>
